<?xml version="1.0" standalone="no"?>
<!DOCTYPE svg PUBLIC "-//W3C//DTD SVG 20010904//EN"
 "http://www.w3.org/TR/2001/REC-SVG-20010904/DTD/svg10.dtd">
<svg version="1.0" xmlns="http://www.w3.org/2000/svg"
 width="640.000000pt" height="640.000000pt" viewBox="0 0 640.000000 640.000000"
 preserveAspectRatio="xMidYMid meet">
<metadata>
Created by potrace 1.11, written by Peter Selinger 2001-2013
</metadata>
<g transform="translate(0.000000,640.000000) scale(0.100000,-0.100000)"
fill="#000000" stroke="none">
<path d="M2510 4843 c-39 -14 -40 -23 -40 -467 0 -251 5 -458 11 -496 43 -273
219 -506 470 -625 80 -38 212 -75 266 -75 l33 0 0 -685 0 -685 -240 0 c-227 0
-241 -1 -260 -20 -25 -25 -26 -52 -2 -73 17 -15 70 -17 554 -17 505 0 536 1
551 18 23 26 21 58 -5 76 -19 13 -61 16 -255 16 l-233 0 0 684 0 683 61 7 c84
8 230 59 313 108 142 84 279 243 344 399 58 141 62 182 62 678 l0 450 -22 15
c-20 14 -112 16 -808 15 -432 0 -792 -3 -800 -6z m1520 -138 l0 -35 -690 0
-690 0 1 -447 c0 -394 2 -456 18 -515 9 -38 16 -68 14 -68 -7 0 -53 102 -74
165 -23 68 -23 81 -27 503 l-3 432 725 0 726 0 0 -35z"/>
</g>
</svg>
